<?xml version="1.0" standalone="no"?>
<!DOCTYPE svg PUBLIC "-//W3C//DTD SVG 20010904//EN"
 "http://www.w3.org/TR/2001/REC-SVG-20010904/DTD/svg10.dtd">
<svg version="1.0" xmlns="http://www.w3.org/2000/svg"
 width="1080.000000pt" height="383.000000pt" viewBox="0 0 1080.000000 383.000000"
 preserveAspectRatio="xMidYMid meet">
<metadata>
Created by potrace 1.16, written by Peter Selinger 2001-2019
</metadata>
<g transform="translate(0.000000,383.000000) scale(0.100000,-0.100000)"
fill="#000000" stroke="none">
<path d="M2915 3245 c-71 -7 -131 -13 -132 -14 -2 -1 -3 -431 -3 -956 l0 -955
160 0 160 0 0 529 0 529 73 17 c39 9 112 17 160 17 136 0 204 -44 238 -151 8
-24 13 -183 16 -488 l5 -453 155 0 155 0 -5 498 c-4 407 -8 509 -21 565 -37
159 -113 250 -238 288 -62 19 -86 21 -202 16 -123 -5 -172 -15 -328 -64 -17
-5 -18 15 -18 316 l0 321 -22 -2 c-13 0 -81 -7 -153 -13z"/>
<path d="M5665 3245 c-71 -7 -131 -13 -132 -14 -2 0 -3 -431 -3 -956 l0 -955
155 0 156 0 -2 970 -1 970 -22 -1 c-11 -1 -79 -7 -151 -14z"/>
<path d="M10235 3245 c-71 -7 -131 -13 -132 -14 -2 0 -3 -431 -3 -956 l0 -955
155 0 155 0 0 970 0 970 -22 -1 c-13 -1 -81 -7 -153 -14z"/>
<path d="M254 3223 c3 -10 121 -442 262 -960 l257 -943 157 0 156 0 185 685
185 685 174 -652 c95 -359 177 -668 182 -686 l9 -33 156 3 157 3 257 940 c142
517 258 948 259 958 0 15 -14 17 -153 17 l-153 0 -178 -667 c-98 -368 -182
-673 -185 -680 -4 -7 -90 294 -191 668 l-185 679 -154 -2 -155 -3 -181 -673
c-100 -369 -184 -674 -186 -676 -2 -2 -86 300 -185 672 l-181 677 -157 3
c-147 2 -157 1 -152 -15z"/>
<path d="M4193 3190 c-42 -25 -64 -70 -70 -140 -10 -111 27 -192 100 -219 48
-19 128 -13 177 12 66 33 85 73 85 177 0 143 -45 190 -185 190 -57 0 -83 -5
-107 -20z"/>
<path d="M5188 2674 c-63 -15 -146 -53 -195 -90 l-32 -25 -15 34 c-7 19 -17
43 -20 55 -7 21 -13 22 -117 22 l-109 0 0 -675 0 -675 155 0 155 0 0 514 0
514 63 23 c55 21 78 24 200 23 l137 -1 0 149 0 148 -82 -1 c-46 0 -109 -7
-140 -15z"/>
<path d="M6560 2667 c-47 -13 -117 -37 -156 -54 l-72 -31 -8 41 -9 42 -123 3
-122 3 0 -601 c0 -330 3 -600 8 -600 8 0 112 91 230 201 l72 67 0 310 0 309
75 18 c54 12 102 16 172 13 113 -5 162 -24 213 -85 l31 -38 30 35 c17 19 65
80 106 135 l76 99 -56 52 c-78 73 -143 96 -277 101 -86 2 -120 -1 -190 -20z"/>
<path d="M7790 2674 c-155 -33 -282 -128 -345 -258 -45 -93 -63 -165 -77 -309
-13 -131 -1 -301 28 -412 54 -204 184 -335 380 -381 92 -22 286 -22 378 0 97
23 197 79 253 140 52 57 105 161 128 251 38 148 36 443 -5 592 -58 213 -183
335 -386 378 -86 18 -268 18 -354 -1z m269 -240 c130 -38 192 -182 191 -447
-1 -192 -46 -331 -127 -393 -50 -38 -135 -59 -202 -49 -149 21 -222 126 -242
349 -16 184 12 364 71 446 66 92 189 130 309 94z"/>
<path d="M9135 2673 c-300 -64 -441 -312 -422 -743 15 -350 141 -544 393 -611
93 -25 284 -29 379 -9 209 43 342 177 401 405 27 102 27 447 0 555 -56 228
-185 362 -391 405 -89 19 -269 18 -360 -2z m297 -246 c69 -29 124 -110 146
-212 30 -141 23 -372 -14 -483 -43 -125 -129 -187 -259 -187 -171 1 -254 103
-278 342 -21 213 16 395 97 481 73 77 205 102 308 59z"/>
<path d="M4150 2002 l0 -669 107 -6 c58 -4 128 -7 155 -7 l48 0 0 675 0 675
-155 0 -155 0 0 -668z"/>
<path d="M7119 2233 c-29 -38 -89 -110 -133 -162 l-80 -93 -17 -97 c-22 -124
-50 -191 -104 -240 -51 -47 -95 -61 -190 -61 l-71 0 -94 -87 c-52 -47 -155
-138 -227 -201 l-133 -114 0 -250 0 -250 33 5 c17 4 87 12 155 18 l122 13 0
309 0 309 23 -5 c12 -4 72 -11 133 -17 447 -45 673 188 675 694 0 144 -16 296
-31 296 -5 0 -32 -30 -61 -67z"/>
</g>
</svg>
